<svg width="49" height="25" viewBox="0 0 49 25" fill="none" xmlns="http://www.w3.org/2000/svg">
<rect x="0.5" y="0.5" width="47.0263" height="24" rx="2.5" stroke="white"/>
<rect x="1" y="5" width="46" height="1" fill="white"/>
<rect x="7" y="11" width="5" height="1" transform="rotate(-90 7 11)" fill="white"/>
<rect x="8" y="15" width="4" height="1" transform="rotate(-90 8 15)" fill="white"/>
<rect x="6" y="20" width="5" height="1" transform="rotate(-90 6 20)" fill="white"/>
<rect x="6" y="24" width="4" height="1" transform="rotate(-90 6 24)" fill="white"/>
<rect x="11" y="24" width="4" height="1" transform="rotate(-90 11 24)" fill="white"/>
<rect x="11" y="20" width="5" height="1" transform="rotate(-90 11 20)" fill="white"/>
<rect x="15" y="20" width="5" height="1" transform="rotate(-90 15 20)" fill="white"/>
<rect x="13" y="15" width="4" height="1" transform="rotate(-90 13 15)" fill="white"/>
<rect x="17" y="15" width="4" height="1" transform="rotate(-90 17 15)" fill="white"/>
<rect x="11" y="11" width="5" height="1" transform="rotate(-90 11 11)" fill="white"/>
<rect x="16" y="11" width="5" height="1" transform="rotate(-90 16 11)" fill="white"/>
<rect x="20" y="11" width="5" height="1" transform="rotate(-90 20 11)" fill="white"/>
<rect x="25" y="11" width="5" height="1" transform="rotate(-90 25 11)" fill="white"/>
<rect x="30" y="11" width="5" height="1" transform="rotate(-90 30 11)" fill="white"/>
<rect x="34" y="11" width="5" height="1" transform="rotate(-90 34 11)" fill="white"/>
<rect x="22" y="15" width="4" height="1" transform="rotate(-90 22 15)" fill="white"/>
<rect x="26" y="15" width="4" height="1" transform="rotate(-90 26 15)" fill="white"/>
<rect x="31" y="15" width="4" height="1" transform="rotate(-90 31 15)" fill="white"/>
<rect x="36" y="15" width="4" height="1" transform="rotate(-90 36 15)" fill="white"/>
<rect x="20" y="20" width="5" height="1" transform="rotate(-90 20 20)" fill="white"/>
<rect x="24" y="20" width="5" height="1" transform="rotate(-90 24 20)" fill="white"/>
<rect x="29" y="20" width="5" height="1" transform="rotate(-90 29 20)" fill="white"/>
<rect x="34" y="20" width="5" height="1" transform="rotate(-90 34 20)" fill="white"/>
<rect x="33" y="24" width="4" height="1" transform="rotate(-90 33 24)" fill="white"/>
<rect x="38" y="25" width="5" height="1" transform="rotate(-90 38 25)" fill="white"/>
<rect x="42" y="25" width="5" height="1" transform="rotate(-90 42 25)" fill="white"/>
<rect x="42" y="19" width="5" height="1" transform="rotate(-90 42 19)" fill="white"/>
<rect x="41" y="15" width="4" height="1" transform="rotate(-90 41 15)" fill="white"/>
<rect x="39" y="11" width="5" height="1" transform="rotate(-90 39 11)" fill="white"/>
<rect x="1" y="10" width="46" height="1" fill="white"/>
<rect x="1" y="14" width="41" height="1" fill="white"/>
<rect x="1" y="19" width="46" height="1" fill="white"/>
<rect x="39" y="3" width="5" height="1" rx="0.5" fill="white"/>
<circle cx="5.5" cy="3.5" r="0.5" fill="white"/>
<circle cx="7.5" cy="3.5" r="0.5" fill="white"/>
<circle cx="9.5" cy="3.5" r="0.5" fill="white"/>
<path d="M3.03682 4L3.40222 2.9822H3.59822L3.96362 4H3.75642L3.50442 3.2426L3.49322 3.1908L3.48062 3.2454L3.36162 3.608L3.34482 3.636L3.36582 3.6332H3.47222C3.49929 3.6332 3.52192 3.6409 3.54012 3.6563C3.55879 3.6717 3.57372 3.6906 3.58492 3.713C3.59659 3.7354 3.60569 3.75687 3.61222 3.7774H3.30842L3.23422 4H3.03682Z" fill="white"/>
<rect x="19" width="9" height="2" rx="1" fill="white"/>
</svg>
