<svg width="78" height="49" viewBox="0 0 78 49" fill="none" xmlns="http://www.w3.org/2000/svg">
<rect x="15.5" y="0.5" width="47.0263" height="24" rx="2.5" stroke="#010B62"/>
<rect x="16" y="5" width="46" height="1" fill="#010B62"/>
<rect x="22" y="11" width="5" height="1" transform="rotate(-90 22 11)" fill="#010B62"/>
<rect x="23" y="15" width="4" height="1" transform="rotate(-90 23 15)" fill="#010B62"/>
<rect x="21" y="20" width="5" height="1" transform="rotate(-90 21 20)" fill="#010B62"/>
<rect x="21" y="24" width="4" height="1" transform="rotate(-90 21 24)" fill="#010B62"/>
<rect x="26" y="24" width="4" height="1" transform="rotate(-90 26 24)" fill="#010B62"/>
<rect x="26" y="20" width="5" height="1" transform="rotate(-90 26 20)" fill="#010B62"/>
<rect x="30" y="20" width="5" height="1" transform="rotate(-90 30 20)" fill="#010B62"/>
<rect x="28" y="15" width="4" height="1" transform="rotate(-90 28 15)" fill="#010B62"/>
<rect x="32" y="15" width="4" height="1" transform="rotate(-90 32 15)" fill="#010B62"/>
<rect x="26" y="11" width="5" height="1" transform="rotate(-90 26 11)" fill="#010B62"/>
<rect x="31" y="11" width="5" height="1" transform="rotate(-90 31 11)" fill="#010B62"/>
<rect x="35" y="11" width="5" height="1" transform="rotate(-90 35 11)" fill="#010B62"/>
<rect x="40" y="11" width="5" height="1" transform="rotate(-90 40 11)" fill="#010B62"/>
<rect x="45" y="11" width="5" height="1" transform="rotate(-90 45 11)" fill="#010B62"/>
<rect x="49" y="11" width="5" height="1" transform="rotate(-90 49 11)" fill="#010B62"/>
<rect x="37" y="15" width="4" height="1" transform="rotate(-90 37 15)" fill="#010B62"/>
<rect x="41" y="15" width="4" height="1" transform="rotate(-90 41 15)" fill="#010B62"/>
<rect x="46" y="15" width="4" height="1" transform="rotate(-90 46 15)" fill="#010B62"/>
<rect x="51" y="15" width="4" height="1" transform="rotate(-90 51 15)" fill="#010B62"/>
<rect x="35" y="20" width="5" height="1" transform="rotate(-90 35 20)" fill="#010B62"/>
<rect x="39" y="20" width="5" height="1" transform="rotate(-90 39 20)" fill="#010B62"/>
<rect x="44" y="20" width="5" height="1" transform="rotate(-90 44 20)" fill="#010B62"/>
<rect x="49" y="20" width="5" height="1" transform="rotate(-90 49 20)" fill="#010B62"/>
<rect x="48" y="24" width="4" height="1" transform="rotate(-90 48 24)" fill="#010B62"/>
<rect x="53" y="25" width="5" height="1" transform="rotate(-90 53 25)" fill="#010B62"/>
<rect x="57" y="25" width="5" height="1" transform="rotate(-90 57 25)" fill="#010B62"/>
<rect x="57" y="19" width="5" height="1" transform="rotate(-90 57 19)" fill="#010B62"/>
<rect x="56" y="15" width="4" height="1" transform="rotate(-90 56 15)" fill="#010B62"/>
<rect x="54" y="11" width="5" height="1" transform="rotate(-90 54 11)" fill="#010B62"/>
<rect x="16" y="10" width="46" height="1" fill="#010B62"/>
<rect x="16" y="14" width="41" height="1" fill="#010B62"/>
<rect x="16" y="19" width="46" height="1" fill="#010B62"/>
<rect x="54" y="3" width="5" height="1" rx="0.5" fill="#010B62"/>
<circle cx="20.5" cy="3.5" r="0.5" fill="#010B62"/>
<circle cx="22.5" cy="3.5" r="0.5" fill="#010B62"/>
<circle cx="24.5" cy="3.5" r="0.5" fill="#010B62"/>
<path d="M18.0368 4L18.4022 2.9822H18.5982L18.9636 4H18.7564L18.5044 3.2426L18.4932 3.1908L18.4806 3.2454L18.3616 3.608L18.3448 3.636L18.3658 3.6332H18.4722C18.4993 3.6332 18.5219 3.6409 18.5401 3.6563C18.5588 3.6717 18.5737 3.6906 18.5849 3.713C18.5966 3.7354 18.6057 3.75687 18.6122 3.7774H18.3084L18.2342 4H18.0368Z" fill="#010B62"/>
<rect x="34" width="9" height="2" rx="1" fill="#010B62"/>
<path d="M19.3928 45C18.7128 43.6667 18.0195 42.1067 17.3128 40.32C16.6195 38.5333 15.9595 36.5867 15.3328 34.48H18.4928C18.6261 35 18.7795 35.5667 18.9528 36.18C19.1395 36.78 19.3261 37.3933 19.5128 38.02C19.7128 38.6333 19.9061 39.2333 20.0928 39.82C20.2928 40.4067 20.4861 40.94 20.6728 41.42C20.8461 40.94 21.0328 40.4067 21.2328 39.82C21.4328 39.2333 21.6261 38.6333 21.8128 38.02C22.0128 37.3933 22.1995 36.78 22.3728 36.18C22.5595 35.5667 22.7195 35 22.8528 34.48H25.9328C25.3061 36.5867 24.6395 38.5333 23.9328 40.32C23.2395 42.1067 22.5528 43.6667 21.8728 45H19.3928ZM31.3536 42.92C31.6469 42.92 31.9269 42.9133 32.1936 42.9C32.4603 42.8867 32.6736 42.8667 32.8336 42.84V40.58C32.7136 40.5533 32.5336 40.5267 32.2936 40.5C32.0536 40.4733 31.8336 40.46 31.6336 40.46C31.3536 40.46 31.0869 40.48 30.8336 40.52C30.5936 40.5467 30.3803 40.6067 30.1936 40.7C30.0069 40.7933 29.8603 40.92 29.7536 41.08C29.6469 41.24 29.5936 41.44 29.5936 41.68C29.5936 42.1467 29.7469 42.4733 30.0536 42.66C30.3736 42.8333 30.8069 42.92 31.3536 42.92ZM31.1136 34.2C31.9936 34.2 32.7269 34.3 33.3136 34.5C33.9003 34.7 34.3669 34.9867 34.7136 35.36C35.0736 35.7333 35.3269 36.1867 35.4736 36.72C35.6203 37.2533 35.6936 37.8467 35.6936 38.5V44.7C35.2669 44.7933 34.6736 44.9 33.9136 45.02C33.1536 45.1533 32.2336 45.22 31.1536 45.22C30.4736 45.22 29.8536 45.16 29.2936 45.04C28.7469 44.92 28.2736 44.7267 27.8736 44.46C27.4736 44.18 27.1669 43.82 26.9536 43.38C26.7403 42.94 26.6336 42.4 26.6336 41.76C26.6336 41.1467 26.7536 40.6267 26.9936 40.2C27.2469 39.7733 27.5803 39.4333 27.9936 39.18C28.4069 38.9267 28.8803 38.7467 29.4136 38.64C29.9469 38.52 30.5003 38.46 31.0736 38.46C31.4603 38.46 31.8003 38.48 32.0936 38.52C32.4003 38.5467 32.6469 38.5867 32.8336 38.64V38.36C32.8336 37.8533 32.6803 37.4467 32.3736 37.14C32.0669 36.8333 31.5336 36.68 30.7736 36.68C30.2669 36.68 29.7669 36.72 29.2736 36.8C28.7803 36.8667 28.3536 36.9667 27.9936 37.1L27.6136 34.7C27.7869 34.6467 28.0003 34.5933 28.2536 34.54C28.5203 34.4733 28.8069 34.42 29.1136 34.38C29.4203 34.3267 29.7403 34.2867 30.0736 34.26C30.4203 34.22 30.7669 34.2 31.1136 34.2ZM42.5883 45.2C41.7216 45.1867 41.0149 45.0933 40.4683 44.92C39.9349 44.7467 39.5083 44.5067 39.1883 44.2C38.8816 43.88 38.6683 43.5 38.5483 43.06C38.4416 42.6067 38.3883 42.1 38.3883 41.54V29.96L41.3683 29.48V40.94C41.3683 41.2067 41.3883 41.4467 41.4283 41.66C41.4683 41.8733 41.5416 42.0533 41.6483 42.2C41.7683 42.3467 41.9349 42.4667 42.1483 42.56C42.3616 42.6533 42.6483 42.7133 43.0083 42.74L42.5883 45.2ZM47.6964 45H44.7164V34.48H47.6964V45ZM47.9764 31.44C47.9764 31.9867 47.7964 32.42 47.4364 32.74C47.0897 33.0467 46.6764 33.2 46.1964 33.2C45.7164 33.2 45.2964 33.0467 44.9364 32.74C44.5897 32.42 44.4164 31.9867 44.4164 31.44C44.4164 30.8933 44.5897 30.4667 44.9364 30.16C45.2964 29.84 45.7164 29.68 46.1964 29.68C46.6764 29.68 47.0897 29.84 47.4364 30.16C47.7964 30.4667 47.9764 30.8933 47.9764 31.44ZM53.4177 43.42C53.4177 44.02 53.2243 44.48 52.8377 44.8C52.4643 45.1067 52.0377 45.26 51.5577 45.26C51.0777 45.26 50.6443 45.1067 50.2577 44.8C49.8843 44.48 49.6977 44.02 49.6977 43.42C49.6977 42.82 49.8843 42.3667 50.2577 42.06C50.6443 41.74 51.0777 41.58 51.5577 41.58C52.0377 41.58 52.4643 41.74 52.8377 42.06C53.2243 42.3667 53.4177 42.82 53.4177 43.42ZM64.3995 44.64C63.8929 44.7867 63.2395 44.92 62.4395 45.04C61.6395 45.1733 60.7995 45.24 59.9195 45.24C59.0262 45.24 58.2795 45.12 57.6795 44.88C57.0929 44.64 56.6262 44.3067 56.2795 43.88C55.9329 43.44 55.6862 42.92 55.5395 42.32C55.3929 41.72 55.3195 41.06 55.3195 40.34V34.48H58.2995V39.98C58.2995 40.94 58.4262 41.6333 58.6795 42.06C58.9329 42.4867 59.4062 42.7 60.0995 42.7C60.3129 42.7 60.5395 42.6933 60.7795 42.68C61.0195 42.6533 61.2329 42.6267 61.4195 42.6V34.48H64.3995V44.64ZM73.9369 39.82C73.9369 38.9 73.7302 38.1667 73.3169 37.62C72.9035 37.06 72.2902 36.78 71.4769 36.78C71.2102 36.78 70.9635 36.7933 70.7369 36.82C70.5102 36.8333 70.3235 36.8533 70.1769 36.88V42.26C70.3635 42.38 70.6035 42.48 70.8969 42.56C71.2035 42.64 71.5102 42.68 71.8169 42.68C73.2302 42.68 73.9369 41.7267 73.9369 39.82ZM76.9769 39.74C76.9769 40.5533 76.8769 41.2933 76.6769 41.96C76.4769 42.6267 76.1835 43.2 75.7969 43.68C75.4102 44.16 74.9302 44.5333 74.3569 44.8C73.7835 45.0667 73.1235 45.2 72.3769 45.2C71.9635 45.2 71.5769 45.16 71.2169 45.08C70.8569 45 70.5102 44.8867 70.1769 44.74V48.7H67.1969V34.84C67.4635 34.76 67.7702 34.6867 68.1169 34.62C68.4635 34.54 68.8235 34.4733 69.1969 34.42C69.5835 34.3667 69.9702 34.3267 70.3569 34.3C70.7569 34.26 71.1369 34.24 71.4969 34.24C72.3635 34.24 73.1369 34.3733 73.8169 34.64C74.4969 34.8933 75.0702 35.26 75.5369 35.74C76.0035 36.2067 76.3569 36.78 76.5969 37.46C76.8502 38.14 76.9769 38.9 76.9769 39.74Z" fill="#010B62"/>
<path d="M1.72152 45L7.46352 29.006H10.5435L16.2855 45H13.0295L9.06952 33.098L8.89352 32.284L8.69552 33.142L6.82552 38.84L6.56152 39.28L6.89152 39.236H8.56352C8.98886 39.236 9.34452 39.357 9.63052 39.599C9.92386 39.841 10.1585 40.138 10.3345 40.49C10.5179 40.842 10.6609 41.1793 10.7635 41.502H5.98952L4.82352 45H1.72152Z" fill="#010B62"/>
</svg>
